<svg width="2000px" height="1126px"
 viewBox="0.00 0.00 698.49 393.46" xmlns="http://www.w3.org/2000/svg" xmlns:xlink="http://www.w3.org/1999/xlink">
<g id="graph0" class="graph" transform="scale(1.0 1.0) rotate(0) translate(4 389.46)">
<title>ContextMapGraph</title>
<polygon fill="white" stroke="transparent" points="-4,4 -4,-389.46 694.49,-389.46 694.49,4 -4,4"/>
<!-- CallCenterContext -->
<g id="node1" class="node">
<title>CallCenterContext</title>
<polygon fill="none" stroke="black" stroke-width="2" points="368.5,-375.09 361.07,-376.66 353.47,-378.11 345.75,-379.45 337.94,-380.67 330.06,-381.75 322.15,-382.7 314.23,-383.51 306.33,-384.18 298.48,-384.7 290.71,-385.08 283.03,-385.3 275.48,-385.37 268.08,-385.29 260.85,-385.05 253.81,-384.67 246.97,-384.13 240.36,-383.44 233.98,-382.61 227.86,-381.63 222,-380.51 216.42,-379.26 211.12,-377.88 206.11,-376.38 201.4,-374.75 196.98,-373.02 192.87,-371.18 189.07,-369.25 185.58,-367.22 182.39,-365.12 179.5,-362.94 176.92,-360.7 174.65,-358.4 172.67,-356.05 170.98,-353.67 169.59,-351.25 168.48,-348.81 167.65,-346.36 167.11,-343.91 166.84,-341.46 166.83,-339.02 167.1,-336.6 167.63,-334.21 168.41,-331.85 169.45,-329.53 170.75,-327.26 172.29,-325.04 174.08,-322.88 176.12,-320.78 178.4,-318.75 180.93,-316.8 183.7,-314.92 186.71,-313.12 189.96,-311.4 193.45,-309.77 197.17,-308.22 201.13,-306.77 205.33,-305.41 209.76,-304.14 214.42,-302.97 219.31,-301.89 224.43,-300.91 229.76,-300.02 235.31,-299.23 241.06,-298.53 247.01,-297.93 253.16,-297.42 259.49,-297.01 265.99,-296.7 272.65,-296.47 279.46,-296.34 286.4,-296.3 293.45,-296.36 300.61,-296.5 307.84,-296.74 315.13,-297.06 322.46,-297.48 329.81,-297.98 337.15,-298.57 344.46,-299.25 351.72,-300.01 358.89,-300.86 365.96,-301.8 372.89,-302.82 379.66,-303.92 386.25,-305.11 392.62,-306.38 398.75,-307.73 404.61,-309.16 410.17,-310.66 415.42,-312.25 420.33,-313.9 424.86,-315.63 429.02,-317.43 432.76,-319.3 436.08,-321.23 438.95,-323.22 441.37,-325.27 443.31,-327.37 444.77,-329.52 445.74,-331.72 446.21,-333.95 446.18,-336.22 445.64,-338.52 444.6,-340.84 443.06,-343.17 441.02,-345.52 438.49,-347.86 435.49,-350.2 432.02,-352.53 428.09,-354.84 423.73,-357.12 418.96,-359.37 413.78,-361.57 408.24,-363.72 402.34,-365.81 396.12,-367.83 389.59,-369.78 382.8,-371.64 375.76,-373.41 368.5,-375.09"/>
<text text-anchor="middle" x="295.69" y="-334.24" font-family="sans-serif" font-size="16.00">CallCenterContext</text>
</g>
<!-- TransportContext -->
<g id="node2" class="node">
<title>TransportContext</title>
<polygon fill="none" stroke="black" stroke-width="2" points="376.03,-82.48 369.48,-84.29 362.74,-86 355.85,-87.6 348.83,-89.07 341.71,-90.42 334.51,-91.63 327.27,-92.71 320,-93.64 312.73,-94.43 305.49,-95.06 298.3,-95.54 291.17,-95.87 284.14,-96.03 277.23,-96.04 270.44,-95.9 263.81,-95.59 257.34,-95.13 251.05,-94.51 244.95,-93.74 239.06,-92.83 233.39,-91.77 227.95,-90.57 222.74,-89.24 217.78,-87.79 213.07,-86.21 208.62,-84.51 204.42,-82.71 200.49,-80.82 196.82,-78.82 193.42,-76.75 190.29,-74.6 187.42,-72.39 184.82,-70.12 182.49,-67.8 180.43,-65.44 178.63,-63.05 177.09,-60.63 175.82,-58.21 174.8,-55.77 174.05,-53.34 173.55,-50.92 173.31,-48.52 173.33,-46.14 173.6,-43.8 174.12,-41.49 174.9,-39.22 175.93,-37.01 177.21,-34.85 178.74,-32.75 180.53,-30.72 182.57,-28.75 184.86,-26.85 187.41,-25.03 190.2,-23.29 193.25,-21.63 196.56,-20.04 200.11,-18.55 203.91,-17.13 207.96,-15.81 212.25,-14.56 216.79,-13.41 221.56,-12.35 226.57,-11.37 231.8,-10.48 237.25,-9.68 242.91,-8.97 248.77,-8.35 254.83,-7.81 261.06,-7.37 267.46,-7.01 274.02,-6.73 280.71,-6.55 287.52,-6.45 294.44,-6.44 301.44,-6.52 308.51,-6.69 315.62,-6.94 322.75,-7.28 329.87,-7.71 336.98,-8.23 344.03,-8.83 351.01,-9.52 357.88,-10.31 364.63,-11.18 371.23,-12.14 377.65,-13.19 383.86,-14.33 389.85,-15.55 395.58,-16.87 401.04,-18.27 406.19,-19.75 411.02,-21.32 415.51,-22.98 419.62,-24.71 423.36,-26.52 426.69,-28.41 429.61,-30.37 432.1,-32.4 434.15,-34.49 435.74,-36.65 436.88,-38.86 437.55,-41.12 437.75,-43.43 437.48,-45.78 436.74,-48.15 435.53,-50.56 433.86,-52.98 431.74,-55.42 429.18,-57.85 426.17,-60.29 422.75,-62.71 418.93,-65.11 414.71,-67.47 410.12,-69.8 405.19,-72.09 399.92,-74.31 394.35,-76.47 388.49,-78.56 382.38,-80.56 376.03,-82.48"/>
<text text-anchor="middle" x="295.69" y="-44.21" font-family="sans-serif" font-size="16.00">TransportContext</text>
</g>
<!-- CallCenterContext&#45;&gt;TransportContext -->
<g id="edge1" class="edge">
<title>CallCenterContext&#45;&gt;TransportContext</title>
<path fill="none" stroke="black" stroke-width="2" d="M171.37,-326.35C115.11,-314.58 53.54,-290.49 18.69,-241.62 -6.24,-206.67 -6.21,-180.01 18.69,-145.03 54.47,-94.75 118.5,-70.56 175.98,-59.03"/>
<text text-anchor="middle" x="94.19" y="-190.23" font-family="sans-serif" font-size="12.00"> &#160;&#160;&#160;&#160;&#160;&#160;&#160;&#160;&#160;&#160;&#160;&#160;&#160;&#160;&#160;&#160;&#160;&#160;&#160;&#160;&#160;&#160;&#160;&#160;&#160;&#160;&#160;&#160;&#160;&#160;&#160;&#160;&#160;&#160;&#160;&#160;&#160;&#160;&#160;</text>
<polygon fill="white" stroke="transparent" points="152.98,-49.03 152.98,-68.03 168.98,-68.03 168.98,-49.03 152.98,-49.03"/>
<polyline fill="none" stroke="black" points="168.98,-49.03 168.98,-68.03 "/>
<text text-anchor="start" x="155.98" y="-55.43" font-family="sans-serif" font-size="12.00">D</text>
<polygon fill="white" stroke="transparent" points="168.98,-49.03 168.98,-68.03 198.98,-68.03 198.98,-49.03 168.98,-49.03"/>
<polygon fill="none" stroke="black" points="168.98,-49.03 168.98,-68.03 198.98,-68.03 198.98,-49.03 168.98,-49.03"/>
<text text-anchor="start" x="171.98" y="-55.43" font-family="sans-serif" font-size="12.00">ACL</text>
<polygon fill="white" stroke="transparent" points="164.37,-317.35 164.37,-334.35 178.37,-334.35 178.37,-317.35 164.37,-317.35"/>
<text text-anchor="start" x="166.37" y="-322.75" font-family="sans-serif" font-size="12.00">U</text>
</g>
<!-- PatientContext -->
<g id="node3" class="node">
<title>PatientContext</title>
<polygon fill="none" stroke="black" stroke-width="2" points="186.77,-178.62 189.2,-175.91 191.92,-173.27 194.92,-170.68 198.18,-168.18 201.69,-165.77 205.45,-163.46 209.44,-161.25 213.64,-159.16 218.05,-157.2 222.65,-155.36 227.43,-153.67 232.37,-152.12 237.46,-150.72 242.69,-149.47 248.04,-148.38 253.49,-147.45 259.04,-146.69 264.66,-146.08 270.35,-145.64 276.08,-145.35 281.85,-145.23 287.64,-145.27 293.44,-145.46 299.23,-145.8 305,-146.29 310.74,-146.92 316.43,-147.69 322.06,-148.59 327.61,-149.61 333.08,-150.75 338.45,-152.01 343.71,-153.36 348.84,-154.82 353.84,-156.36 358.7,-157.98 363.4,-159.68 367.92,-161.44 372.27,-163.26 376.43,-165.13 380.4,-167.05 384.15,-169 387.68,-170.99 390.98,-173 394.05,-175.03 396.87,-177.07 399.44,-179.12 401.75,-181.17 403.79,-183.23 405.55,-185.27 407.04,-187.31 408.24,-189.34 409.14,-191.35 409.76,-193.34 410.07,-195.31 410.08,-197.26 409.78,-199.19 409.18,-201.09 408.27,-202.97 407.05,-204.81 405.53,-206.63 403.7,-208.41 401.57,-210.17 399.14,-211.89 396.42,-213.57 393.41,-215.23 390.11,-216.84 386.54,-218.42 382.7,-219.95 378.6,-221.45 374.25,-222.9 369.67,-224.3 364.85,-225.65 359.83,-226.95 354.6,-228.2 349.19,-229.39 343.61,-230.51 337.87,-231.57 331.99,-232.56 326,-233.48 319.89,-234.31 313.71,-235.06 307.46,-235.73 301.16,-236.3 294.83,-236.77 288.49,-237.14 282.16,-237.41 275.87,-237.56 269.62,-237.59 263.45,-237.51 257.36,-237.31 251.39,-236.97 245.54,-236.51 239.84,-235.92 234.3,-235.19 228.94,-234.33 223.79,-233.34 218.84,-232.2 214.13,-230.94 209.66,-229.53 205.44,-228 201.5,-226.34 197.84,-224.55 194.47,-222.64 191.4,-220.61 188.64,-218.47 186.2,-216.22 184.09,-213.88 182.3,-211.44 180.85,-208.92 179.73,-206.33 178.94,-203.68 178.5,-200.97 178.39,-198.21 178.61,-195.42 179.17,-192.61 180.06,-189.79 181.26,-186.97 182.79,-184.16 184.63,-181.37 186.77,-178.62"/>
<text text-anchor="middle" x="295.69" y="-189.53" font-family="sans-serif" font-size="16.00">PatientContext</text>
</g>
<!-- CallCenterContext&#45;&gt;PatientContext -->
<g id="edge2" class="edge">
<title>CallCenterContext&#45;&gt;PatientContext</title>
<path fill="none" stroke="black" stroke-width="2" d="M295.69,-296.14C295.69,-277.53 295.69,-255.51 295.69,-236.72"/>
<text text-anchor="middle" x="371.19" y="-263.02" font-family="sans-serif" font-size="12.00"> &#160;&#160;&#160;&#160;&#160;&#160;&#160;&#160;&#160;&#160;&#160;&#160;&#160;&#160;&#160;&#160;&#160;&#160;&#160;&#160;&#160;&#160;&#160;&#160;&#160;&#160;&#160;&#160;&#160;&#160;&#160;&#160;&#160;&#160;&#160;&#160;&#160;&#160;&#160;</text>
<polygon fill="white" stroke="transparent" points="272.69,-226.72 272.69,-245.72 288.69,-245.72 288.69,-226.72 272.69,-226.72"/>
<polyline fill="none" stroke="black" points="288.69,-226.72 288.69,-245.72 "/>
<text text-anchor="start" x="275.69" y="-233.12" font-family="sans-serif" font-size="12.00">D</text>
<polygon fill="white" stroke="transparent" points="288.69,-226.72 288.69,-245.72 318.69,-245.72 318.69,-226.72 288.69,-226.72"/>
<polygon fill="none" stroke="black" points="288.69,-226.72 288.69,-245.72 318.69,-245.72 318.69,-226.72 288.69,-226.72"/>
<text text-anchor="start" x="291.69" y="-233.12" font-family="sans-serif" font-size="12.00">ACL</text>
<polygon fill="white" stroke="transparent" points="288.69,-287.14 288.69,-304.14 302.69,-304.14 302.69,-287.14 288.69,-287.14"/>
<text text-anchor="start" x="290.69" y="-292.54" font-family="sans-serif" font-size="12.00">U</text>
</g>
<!-- VehicleContext -->
<g id="node4" class="node">
<title>VehicleContext</title>
<polygon fill="none" stroke="black" stroke-width="2" points="635.17,-159.54 641.11,-161.33 646.82,-163.21 652.25,-165.17 657.4,-167.19 662.24,-169.27 666.74,-171.4 670.89,-173.58 674.68,-175.8 678.09,-178.04 681.09,-180.31 683.69,-182.6 685.87,-184.89 687.62,-187.18 688.95,-189.48 689.83,-191.76 690.28,-194.02 690.29,-196.26 689.87,-198.47 689.02,-200.65 687.75,-202.8 686.06,-204.89 683.97,-206.95 681.49,-208.95 678.63,-210.9 675.41,-212.79 671.85,-214.61 667.96,-216.38 663.76,-218.08 659.28,-219.71 654.53,-221.26 649.53,-222.75 644.31,-224.16 638.9,-225.49 633.31,-226.75 627.56,-227.92 621.69,-229.01 615.71,-230.02 609.64,-230.95 603.51,-231.79 597.33,-232.55 591.14,-233.21 584.94,-233.79 578.76,-234.28 572.61,-234.68 566.52,-234.98 560.49,-235.2 554.54,-235.31 548.69,-235.34 542.95,-235.26 537.33,-235.09 531.83,-234.83 526.48,-234.46 521.27,-233.99 516.21,-233.43 511.32,-232.76 506.59,-232 502.03,-231.13 497.65,-230.16 493.44,-229.1 489.41,-227.93 485.56,-226.67 481.9,-225.31 478.43,-223.85 475.14,-222.3 472.04,-220.66 469.13,-218.93 466.41,-217.11 463.88,-215.22 461.55,-213.24 459.42,-211.2 457.48,-209.08 455.75,-206.9 454.22,-204.66 452.9,-202.37 451.79,-200.03 450.89,-197.66 450.22,-195.25 449.77,-192.81 449.54,-190.36 449.56,-187.9 449.81,-185.44 450.3,-182.98 451.05,-180.54 452.05,-178.12 453.31,-175.73 454.83,-173.39 456.62,-171.09 458.68,-168.85 461.02,-166.68 463.64,-164.58 466.53,-162.56 469.71,-160.63 473.16,-158.8 476.9,-157.08 480.91,-155.46 485.19,-153.97 489.73,-152.59 494.54,-151.35 499.6,-150.23 504.9,-149.26 510.43,-148.42 516.18,-147.73 522.14,-147.18 528.29,-146.79 534.61,-146.54 541.08,-146.44 547.69,-146.49 554.41,-146.69 561.23,-147.03 568.11,-147.52 575.04,-148.15 581.99,-148.92 588.94,-149.83 595.85,-150.87 602.71,-152.03 609.48,-153.31 616.13,-154.71 622.65,-156.22 629.01,-157.83 635.17,-159.54"/>
<text text-anchor="middle" x="560.69" y="-189.53" font-family="sans-serif" font-size="16.00">VehicleContext</text>
</g>
<!-- CallCenterContext&#45;&gt;VehicleContext -->
<g id="edge3" class="edge">
<title>CallCenterContext&#45;&gt;VehicleContext</title>
<path fill="none" stroke="black" stroke-width="2" d="M383.8,-304.45C406.09,-295.12 429.66,-284.28 450.69,-272.62 471.49,-261.09 493.09,-246.39 511.59,-232.85"/>
<text text-anchor="middle" x="545.19" y="-263.02" font-family="sans-serif" font-size="12.00"> &#160;&#160;&#160;&#160;&#160;&#160;&#160;&#160;&#160;&#160;&#160;&#160;&#160;&#160;&#160;&#160;&#160;&#160;&#160;&#160;&#160;&#160;&#160;&#160;&#160;&#160;&#160;&#160;&#160;&#160;&#160;&#160;&#160;&#160;&#160;&#160;&#160;&#160;&#160;</text>
<polygon fill="white" stroke="transparent" points="488.59,-222.85 488.59,-241.85 504.59,-241.85 504.59,-222.85 488.59,-222.85"/>
<polyline fill="none" stroke="black" points="504.59,-222.85 504.59,-241.85 "/>
<text text-anchor="start" x="491.59" y="-229.25" font-family="sans-serif" font-size="12.00">D</text>
<polygon fill="white" stroke="transparent" points="504.59,-222.85 504.59,-241.85 534.59,-241.85 534.59,-222.85 504.59,-222.85"/>
<polygon fill="none" stroke="black" points="504.59,-222.85 504.59,-241.85 534.59,-241.85 534.59,-222.85 504.59,-222.85"/>
<text text-anchor="start" x="507.59" y="-229.25" font-family="sans-serif" font-size="12.00">ACL</text>
<polygon fill="white" stroke="transparent" points="376.8,-295.45 376.8,-312.45 390.8,-312.45 390.8,-295.45 376.8,-295.45"/>
<text text-anchor="start" x="378.8" y="-300.85" font-family="sans-serif" font-size="12.00">U</text>
</g>
<!-- PatientContext&#45;&gt;TransportContext -->
<g id="edge4" class="edge">
<title>PatientContext&#45;&gt;TransportContext</title>
<path fill="none" stroke="black" stroke-width="2" d="M295.69,-145.4C295.69,-129.56 295.69,-111.89 295.69,-96.05"/>
<text text-anchor="middle" x="330.19" y="-117.43" font-family="sans-serif" font-size="12.00">Partnership</text>
</g>
<!-- VehicleContext&#45;&gt;TransportContext -->
<g id="edge5" class="edge">
<title>VehicleContext&#45;&gt;TransportContext</title>
<path fill="none" stroke="black" stroke-width="2" d="M487.92,-152.98C449.16,-132.01 401.76,-106.38 363.73,-85.82"/>
<text text-anchor="middle" x="470.19" y="-117.43" font-family="sans-serif" font-size="12.00">Partnership</text>
</g>
</g>
</svg>
